<svg xmlns="http://www.w3.org/2000/svg" width="600" height="350">
<style>text { font-family: Arial, sans-serif; font-size: 14px; }</style>
<rect width="100%" height="100%" fill="white"/>
<text x="300.0" y="30" font-size="16px" font-weight="bold" text-anchor="middle">Biểu đồ so sánh S1 và S2 (Hiện tượng lệch pha)</text>
<line x1="60" y1="300" x2="540" y2="300" stroke="black" stroke-width="2"/>
<line x1="60" y1="50" x2="60" y2="300" stroke="black" stroke-width="2"/>
<text x="50" y="305.0" text-anchor="end" font-size="12px" fill="#666">0</text>
<line x1="60" y1="300.0" x2="540" y2="300.0" stroke="#ddd" stroke-dasharray="4"/>
<text x="50" y="255.0" text-anchor="end" font-size="12px" fill="#666">10</text>
<line x1="60" y1="250.0" x2="540" y2="250.0" stroke="#ddd" stroke-dasharray="4"/>
<text x="50" y="205.0" text-anchor="end" font-size="12px" fill="#666">20</text>
<line x1="60" y1="200.0" x2="540" y2="200.0" stroke="#ddd" stroke-dasharray="4"/>
<text x="50" y="155.0" text-anchor="end" font-size="12px" fill="#666">30</text>
<line x1="60" y1="150.0" x2="540" y2="150.0" stroke="#ddd" stroke-dasharray="4"/>
<text x="50" y="105.0" text-anchor="end" font-size="12px" fill="#666">40</text>
<line x1="60" y1="100.0" x2="540" y2="100.0" stroke="#ddd" stroke-dasharray="4"/>
<text x="50" y="55.0" text-anchor="end" font-size="12px" fill="#666">50</text>
<line x1="60" y1="50.0" x2="540" y2="50.0" stroke="#ddd" stroke-dasharray="4"/>
<text x="60.0" y="320" text-anchor="middle" font-size="12px" fill="#666">Cột 1</text>
<text x="180.0" y="320" text-anchor="middle" font-size="12px" fill="#666">Cột 2</text>
<text x="300.0" y="320" text-anchor="middle" font-size="12px" fill="#666">Cột 3</text>
<text x="420.0" y="320" text-anchor="middle" font-size="12px" fill="#666">Cột 4</text>
<text x="540.0" y="320" text-anchor="middle" font-size="12px" fill="#666">Cột 5</text>
<circle cx="60.0" cy="250.0" r="4" fill="#1f77b4"/>
<circle cx="180.0" cy="50.0" r="4" fill="#1f77b4"/>
<circle cx="300.0" cy="200.0" r="4" fill="#1f77b4"/>
<circle cx="420.0" cy="300.0" r="4" fill="#1f77b4"/>
<circle cx="540.0" cy="275.0" r="4" fill="#1f77b4"/>
<polyline points="60.0,250.0 180.0,50.0 300.0,200.0 420.0,300.0 540.0,275.0" fill="none" stroke="#1f77b4" stroke-width="3"/>
<line x1="450" y1="50" x2="470" y2="50" stroke="#1f77b4" stroke-width="3"/>
<text x="475" y="54" font-size="12px" fill="#333">S1 (Ngày 1)</text>
<circle cx="60.0" cy="300.0" r="4" fill="#d62728"/>
<circle cx="180.0" cy="225.0" r="4" fill="#d62728"/>
<circle cx="300.0" cy="75.0" r="4" fill="#d62728"/>
<circle cx="420.0" cy="200.0" r="4" fill="#d62728"/>
<circle cx="540.0" cy="300.0" r="4" fill="#d62728"/>
<polyline points="60.0,300.0 180.0,225.0 300.0,75.0 420.0,200.0 540.0,300.0" fill="none" stroke="#d62728" stroke-width="3"/>
<line x1="450" y1="70" x2="470" y2="70" stroke="#d62728" stroke-width="3"/>
<text x="475" y="74" font-size="12px" fill="#333">S2 (Ngày 2)</text>
</svg>