<svg xmlns="http://www.w3.org/2000/svg" width="400" height="400">
<style>text { font-family: Arial, sans-serif; font-size: 14px; text-anchor: middle; dominant-baseline: central; }</style>
<rect width="100%" height="100%" fill="white"/>
<text x="200.0" y="25" font-size="16px" font-weight="bold">Biểu đồ ranh giới Sakoe-Chiba (Window = 2)</text>
<rect x="50.0" y="290.0" width="60.0" height="60.0" fill="#e6f2ff" stroke="#ccc" stroke-width="1"/>
<rect x="110.0" y="290.0" width="60.0" height="60.0" fill="#e6f2ff" stroke="#ccc" stroke-width="1"/>
<rect x="170.0" y="290.0" width="60.0" height="60.0" fill="#e6f2ff" stroke="#ccc" stroke-width="1"/>
<rect x="230.0" y="290.0" width="60.0" height="60.0" fill="#ffe6e6" stroke="#ccc" stroke-width="1"/>
<text x="260.0" y="320.0" fill="#d62728">∞</text>
<rect x="290.0" y="290.0" width="60.0" height="60.0" fill="#ffe6e6" stroke="#ccc" stroke-width="1"/>
<text x="320.0" y="320.0" fill="#d62728">∞</text>
<rect x="50.0" y="230.0" width="60.0" height="60.0" fill="#e6f2ff" stroke="#ccc" stroke-width="1"/>
<rect x="110.0" y="230.0" width="60.0" height="60.0" fill="#e6f2ff" stroke="#ccc" stroke-width="1"/>
<rect x="170.0" y="230.0" width="60.0" height="60.0" fill="#e6f2ff" stroke="#ccc" stroke-width="1"/>
<rect x="230.0" y="230.0" width="60.0" height="60.0" fill="#e6f2ff" stroke="#ccc" stroke-width="1"/>
<rect x="290.0" y="230.0" width="60.0" height="60.0" fill="#ffe6e6" stroke="#ccc" stroke-width="1"/>
<text x="320.0" y="260.0" fill="#d62728">∞</text>
<rect x="50.0" y="170.0" width="60.0" height="60.0" fill="#e6f2ff" stroke="#ccc" stroke-width="1"/>
<rect x="110.0" y="170.0" width="60.0" height="60.0" fill="#e6f2ff" stroke="#ccc" stroke-width="1"/>
<rect x="170.0" y="170.0" width="60.0" height="60.0" fill="#e6f2ff" stroke="#ccc" stroke-width="1"/>
<rect x="230.0" y="170.0" width="60.0" height="60.0" fill="#e6f2ff" stroke="#ccc" stroke-width="1"/>
<rect x="290.0" y="170.0" width="60.0" height="60.0" fill="#e6f2ff" stroke="#ccc" stroke-width="1"/>
<rect x="50.0" y="110.0" width="60.0" height="60.0" fill="#ffe6e6" stroke="#ccc" stroke-width="1"/>
<text x="80.0" y="140.0" fill="#d62728">∞</text>
<rect x="110.0" y="110.0" width="60.0" height="60.0" fill="#e6f2ff" stroke="#ccc" stroke-width="1"/>
<rect x="170.0" y="110.0" width="60.0" height="60.0" fill="#e6f2ff" stroke="#ccc" stroke-width="1"/>
<rect x="230.0" y="110.0" width="60.0" height="60.0" fill="#e6f2ff" stroke="#ccc" stroke-width="1"/>
<rect x="290.0" y="110.0" width="60.0" height="60.0" fill="#e6f2ff" stroke="#ccc" stroke-width="1"/>
<rect x="50.0" y="50.0" width="60.0" height="60.0" fill="#ffe6e6" stroke="#ccc" stroke-width="1"/>
<text x="80.0" y="80.0" fill="#d62728">∞</text>
<rect x="110.0" y="50.0" width="60.0" height="60.0" fill="#ffe6e6" stroke="#ccc" stroke-width="1"/>
<text x="140.0" y="80.0" fill="#d62728">∞</text>
<rect x="170.0" y="50.0" width="60.0" height="60.0" fill="#e6f2ff" stroke="#ccc" stroke-width="1"/>
<rect x="230.0" y="50.0" width="60.0" height="60.0" fill="#e6f2ff" stroke="#ccc" stroke-width="1"/>
<rect x="290.0" y="50.0" width="60.0" height="60.0" fill="#e6f2ff" stroke="#ccc" stroke-width="1"/>
<circle cx="80.0" cy="320.0" r="4" fill="#1f77b4"/>
<circle cx="140.0" cy="260.0" r="4" fill="#1f77b4"/>
<circle cx="200.0" cy="260.0" r="4" fill="#1f77b4"/>
<circle cx="200.0" cy="200.0" r="4" fill="#1f77b4"/>
<circle cx="260.0" cy="200.0" r="4" fill="#1f77b4"/>
<circle cx="320.0" cy="140.0" r="4" fill="#1f77b4"/>
<circle cx="320.0" cy="80.0" r="4" fill="#1f77b4"/>
<polyline points="80.0,320.0 140.0,260.0 200.0,260.0 200.0,200.0 260.0,200.0 320.0,140.0 320.0,80.0" fill="none" stroke="#1f77b4" stroke-width="3"/>
<text x="200.0" y="385" font-weight="bold">Chuỗi S2 (Thời gian)</text>
<text x="20" y="200.0" transform="rotate(-90 20 200.0)" font-weight="bold">Chuỗi S1 (Thời gian)</text>
</svg>